<svg version="1.2" xmlns="http://www.w3.org/2000/svg" viewBox="0 0 100 100" width="100" height="100">
	<title>Custom Icons</title>
	<style>
		.s0 { fill: #ffffff } 
	</style>
	<g id="Home">
		<path id="Shape 1" fill-rule="evenodd" class="s0" d="m82.89 48h-66.64c-4.04 0-6.56-2.56-4.54-4.61l33.32-33.85c2.02-2.05 7.06-2.05 9.08 0l33.32 33.85c2.02 2.05-0.5 4.61-4.54 4.61z"/>
		<path id="Shape 2" fill-rule="evenodd" class="s0" d="m30 35h40c2.76 0 5 2.24 5 5v40c0 2.76-2.24 5-5 5h-9.26q0.26-0.71 0.26-1.5c0-1.96-1.25-3.63-3-4.24v-15.26c0-2.76-2.24-5-5-5h-6c-2.76 0-5 2.24-5 5v15.26c-1.75 0.61-3 2.28-3 4.24q0 0.79 0.26 1.5h-9.26c-2.76 0-5-2.24-5-5v-40c0-2.76 2.24-5 5-5z"/>
		<path id="Shape 4" fill-rule="evenodd" class="s0" d="m33 48h6c1.66 0 3 1.34 3 3v31c0 1.66-1.34 3-3 3h-6c-1.66 0-3-1.34-3-3v-31c0-1.66 1.34-3 3-3z"/>
		<path id="Shape 4 copy" fill-rule="evenodd" class="s0" d="m61 48h6c1.66 0 3 1.34 3 3v31c0 1.66-1.34 3-3 3h-6c-1.66 0-3-1.34-3-3v-31c0-1.66 1.34-3 3-3z"/>
	</g>
</svg>