<svg version="1.2" xmlns="http://www.w3.org/2000/svg" viewBox="0 0 200 200" width="200" height="200">
	<title>Custom Icons</title>
	<style>
		.s0 { fill: #ffffff } 
		.s1 { fill: none;stroke: #ffffff;stroke-miterlimit:100;stroke-width: 30 } 
	</style>
	<g id="Settings Gear 白">
		<path id="Shape 1" fill-rule="evenodd" class="s0" d="m84.46 7.17h31.11c2.15 0 3.89 1.74 3.89 3.89l3.88 30.32c0 2.58-2.08 4.67-4.66 4.67h-37.33c-2.57 0-4.66-2.09-4.66-4.67l3.89-30.32c0-2.15 1.74-3.89 3.88-3.89z"/>
		<path id="Shape 1 copy" fill-rule="evenodd" class="s0" d="m154.77 23.42l21.98 22c1.52 1.52 1.52 3.98 0 5.5l-18.71 24.18c-1.82 1.83-4.78 1.82-6.6 0l-26.38-26.41c-1.82-1.82-1.82-4.77 0-6.59l24.21-18.69c1.52-1.51 3.98-1.51 5.5 0.01z"/>
		<path id="Shape 1 copy 2" fill-rule="evenodd" class="s0" d="m192.96 84.64l-0.04 31.1c0 2.15-1.74 3.89-3.89 3.89l-30.33 3.85c-2.58 0-4.66-2.09-4.66-4.67l0.04-37.32c0-2.58 2.09-4.67 4.67-4.66l30.32 3.91c2.15 0.01 3.89 1.75 3.89 3.9z"/>
		<path id="Shape 1 copy 3" fill-rule="evenodd" class="s0" d="m176.64 154.92l-22.03 21.96c-1.52 1.52-3.99 1.51-5.5-0.01l-24.17-18.73c-1.82-1.82-1.81-4.78 0.01-6.6l26.44-26.35c1.82-1.82 4.78-1.81 6.6 0.01l18.65 24.22c1.52 1.52 1.52 3.99 0 5.5z"/>
		<path id="Shape 1 copy 4" fill-rule="evenodd" class="s0" d="m115.37 193.05l-31.1-0.07c-2.15 0-3.88-1.74-3.88-3.89l-3.82-30.34c0-2.57 2.09-4.66 4.67-4.65l37.33 0.08c2.57 0 4.66 2.09 4.65 4.67l-3.95 30.32c0 2.15-1.75 3.88-3.9 3.88z"/>
		<path id="Shape 1 copy 5" fill-rule="evenodd" class="s0" d="m45.11 176.65l-21.94-22.05c-1.52-1.52-1.51-3.98 0.01-5.5l18.76-24.14c1.83-1.82 4.78-1.81 6.6 0.02l26.32 26.46c1.82 1.83 1.81 4.78-0.01 6.6l-24.25 18.63c-1.52 1.51-3.98 1.51-5.49-0.02z"/>
		<path id="Shape 1 copy 6" fill-rule="evenodd" class="s0" d="m7.04 115.35l0.1-31.1c0.01-2.15 1.75-3.88 3.9-3.88l30.34-3.79c2.58 0.01 4.66 2.1 4.65 4.68l-0.12 37.33c0 2.57-2.1 4.66-4.68 4.65l-30.31-3.99c-2.15 0-3.88-1.75-3.88-3.9z"/>
		<path id="Shape 1 copy 7" fill-rule="evenodd" class="s0" d="m23.51 45.1l22.08-21.91c1.52-1.51 3.98-1.51 5.49 0.02l24.13 18.78c1.81 1.83 1.8 4.78-0.02 6.6l-26.49 26.3c-1.83 1.81-4.79 1.8-6.6-0.03l-18.61-24.26c-1.51-1.52-1.5-3.98 0.02-5.5z"/>
		<path id="Layer 1" fill-rule="evenodd" class="s1" d="m100.02 155.6c-30.7 0-55.51-24.81-55.51-55.51 0-30.7 24.81-55.51 55.51-55.51 30.7 0 55.51 24.81 55.51 55.51 0 30.7-24.81 55.51-55.51 55.51z"/>
	</g>
</svg>