<svg version="1.2" xmlns="http://www.w3.org/2000/svg" viewBox="0 0 500 500" width="500" height="500">
	<style>
		.s0 { fill: #ffffff } 
		.s1 { fill: none;stroke: #ffffff;stroke-miterlimit:100;stroke-width: 75 } 
	</style>
	<g id="Settings Gear 白">
		<path id="Shape 1" fill-rule="evenodd" class="s0" d="m211.16 17.92h77.76c5.37 0 9.72 4.35 9.72 9.72l9.72 75.82c0 6.44-5.22 11.66-11.66 11.66h-93.32c-6.44 0-11.66-5.22-11.66-11.66l9.72-75.82c0-5.37 4.35-9.72 9.72-9.72z"/>
		<path id="Shape 1 copy" fill-rule="evenodd" class="s0" d="m386.92 58.54l54.95 55.01c3.8 3.8 3.79 9.96 0 13.75l-46.77 60.46c-4.56 4.55-11.95 4.55-16.5-0.01l-65.95-66.02c-4.55-4.55-4.55-11.94 0.01-16.49l60.51-46.71c3.8-3.79 9.95-3.79 13.75 0.01z"/>
		<path id="Shape 1 copy 2" fill-rule="evenodd" class="s0" d="m482.39 211.59l-0.08 77.76c0 5.37-4.36 9.72-9.73 9.71l-75.83 9.64c-6.44 0-11.66-5.23-11.65-11.67l0.1-93.32c0.01-6.44 5.23-11.65 11.67-11.65l75.81 9.8c5.37 0.01 9.72 4.36 9.71 9.73z"/>
		<path id="Shape 1 copy 3" fill-rule="evenodd" class="s0" d="m441.59 387.31l-55.07 54.9c-3.81 3.79-9.96 3.78-13.75-0.03l-60.41-46.83c-4.55-4.56-4.54-11.95 0.03-16.49l66.08-65.88c4.56-4.55 11.95-4.54 16.5 0.02l46.64 60.56c3.79 3.8 3.78 9.96-0.02 13.75z"/>
		<path id="Shape 1 copy 4" fill-rule="evenodd" class="s0" d="m288.44 482.62l-77.76-0.16c-5.37-0.01-9.72-4.37-9.7-9.74l-9.57-75.84c0.02-6.44 5.25-11.65 11.69-11.64l93.32 0.2c6.44 0.01 11.65 5.24 11.64 11.69l-9.88 75.79c-0.01 5.37-4.37 9.71-9.74 9.7z"/>
		<path id="Shape 1 copy 5" fill-rule="evenodd" class="s0" d="m112.77 441.64l-54.85-55.13c-3.78-3.81-3.77-9.96 0.04-13.75l46.89-60.36c4.57-4.54 11.96-4.52 16.5 0.04l65.81 66.16c4.54 4.56 4.52 11.95-0.04 16.49l-60.61 46.58c-3.8 3.79-9.96 3.77-13.74-0.03z"/>
		<path id="Shape 1 copy 6" fill-rule="evenodd" class="s0" d="m17.61 288.39l0.24-77.77c0.02-5.36 4.38-9.7 9.75-9.68l75.85-9.49c6.44 0.02 11.65 5.26 11.63 11.7l-0.3 93.32c-0.02 6.44-5.25 11.64-11.7 11.62l-75.78-9.95c-5.37-0.02-9.71-4.39-9.69-9.75z"/>
		<path id="Shape 1 copy 7" fill-rule="evenodd" class="s0" d="m58.78 112.76l55.18-54.79c3.81-3.78 9.97-3.76 13.75 0.05l60.31 46.96c4.54 4.57 4.51 11.96-0.06 16.5l-66.22 65.74c-4.57 4.54-11.96 4.51-16.5-0.06l-46.51-60.66c-3.78-3.81-3.76-9.96 0.05-13.74z"/>
		<path id="Layer 1" fill-rule="evenodd" class="s1" d="m250.05 389.01c-76.75 0-138.79-62.04-138.79-138.79 0-76.74 62.04-138.78 138.79-138.78 76.74 0 138.78 62.04 138.78 138.78 0 76.75-62.04 138.79-138.78 138.79z"/>
	</g>
</svg>